<svg xmlns="http://www.w3.org/2000/svg" viewBox="0 0 200 200" width="200" height="200" fill="#3498db">
    <rect x="50" y="30" width="100" height="140" rx="5" ry="5" fill="#ecf0f1" />
    <g>
        <rect x="55" y="25" width="90" height="5" rx="2" ry="2" fill="#2c3e50" />
        <rect x="55" y="175" width="90" height="5" rx="2" ry="2" fill="#2c3e50" />
    </g>
    <g>
        <rect x="75" y="180" width="50" height="10" rx="2" ry="2" fill="#666666" />
    </g>
    <g>
        <circle cx="70" cy="30" r="5" fill="#EAEAEA" />
        <circle cx="80" cy="30" r="5" fill="#EAEAEA" />
    </g>
    <g>
        <rect x="53" y="55" width="4" height="4" fill="#4B4B4B" />
        <rect x="53" y="60" width="4" height="4" fill="#4B4B4B" />
        <rect x="53" y="65" width="4" height="4" fill="#4B4B4B" />
        <rect x="53" y="70" width="4" height="4" fill="#4B4B4B" />
        <rect x="53" y="75" width="4" height="4" fill="#4B4B4B" />
        <rect x="143" y="55" width="4" height="6" fill="#3C4042" />
        <rect x="143" y="64" width="4" height="6" fill="#3C4042" />
        <rect x="143" y="73" width="4" height="6" fill="#3C4042" />
        <rect x="143" y="82" width="4" height="6" fill="#3C4042" />
        <rect x="143" y="91" width="4" height="6" fill="#3C4042" />
    </g>
    <g>
        <text x="70" y="170" font-size="20" fill="#2c3e50" text-anchor="middle" alignment-baseline="middle" transform="rotate(-90, 60, 110)">ARDUINO</text>
    </g>
</svg>