<svg width="400" height="200" xmlns="http://www.w3.org/2000/svg">
    <!-- Motherboard -->
    <rect x="20" y="20" width="300" height="120" fill="#ccc" />
    <!-- Holes representing a breadboard -->
    <g>
        <circle cx="29" cy="29" r="2" fill="black" />
        <circle cx="37" cy="29" r="2" fill="black" />
        <circle cx="45" cy="29" r="2" fill="black" />
        <circle cx="53" cy="29" r="2" fill="black" />
        <circle cx="29" cy="36" r="2" fill="black" />
        <circle cx="37" cy="36" r="2" fill="black" />
        <circle cx="45" cy="36" r="2" fill="black" />
        <circle cx="53" cy="36" r="2" fill="black" />
    </g>
    <g transform="translate(40,0)">
        <circle cx="29" cy="29" r="2" fill="black" />
        <circle cx="37" cy="29" r="2" fill="black" />
        <circle cx="45" cy="29" r="2" fill="black" />
        <circle cx="53" cy="29" r="2" fill="black" />
        <circle cx="60" cy="29" r="2" fill="black" />
        <circle cx="29" cy="36" r="2" fill="black" />
        <circle cx="37" cy="36" r="2" fill="black" />
        <circle cx="45" cy="36" r="2" fill="black" />
        <circle cx="53" cy="36" r="2" fill="black" />
        <circle cx="60" cy="36" r="2" fill="black" />
    </g>
    <g transform="translate(90,0)">
        <circle cx="29" cy="29" r="2" fill="black" />
        <circle cx="37" cy="29" r="2" fill="black" />
        <circle cx="53" cy="29" r="2" fill="black" />
        <circle cx="60" cy="29" r="2" fill="black" />
        <circle cx="29" cy="36" r="2" fill="black" />
        <circle cx="37" cy="36" r="2" fill="black" />
        <circle cx="53" cy="36" r="2" fill="black" />
        <circle cx="60" cy="36" r="2" fill="black" />
    </g>
    <g transform="translate(140,0)">
        <circle cx="29" cy="29" r="2" fill="black" />
        <circle cx="37" cy="29" r="2" fill="black" />
        <circle cx="45" cy="29" r="2" fill="black" />
        <circle cx="53" cy="29" r="2" fill="black" />
        <circle cx="29" cy="36" r="2" fill="black" />
        <circle cx="37" cy="36" r="2" fill="black" />
        <circle cx="45" cy="36" r="2" fill="black" />
        <circle cx="53" cy="36" r="2" fill="black" />
    </g>
    <g transform="translate(175,0)">
        <circle cx="29" cy="29" r="2" fill="black" />
        <circle cx="37" cy="29" r="2" fill="black" />
        <circle cx="45" cy="29" r="2" fill="black" />
        <circle cx="53" cy="29" r="2" fill="black" />
        <circle cx="29" cy="36" r="2" fill="black" />
        <circle cx="37" cy="36" r="2" fill="black" />
        <circle cx="45" cy="36" r="2" fill="black" />
        <circle cx="53" cy="36" r="2" fill="black" />
    </g>
    <g transform="translate(215,0)">
        <circle cx="29" cy="29" r="2" fill="black" />
        <circle cx="37" cy="29" r="2" fill="black" />
        <circle cx="45" cy="29" r="2" fill="black" />
        <circle cx="53" cy="29" r="2" fill="black" />
        <circle cx="60" cy="29" r="2" fill="black" />
        <circle cx="67" cy="29" r="2" fill="black" />
        <circle cx="29" cy="36" r="2" fill="black" />
        <circle cx="37" cy="36" r="2" fill="black" />
        <circle cx="45" cy="36" r="2" fill="black" />
        <circle cx="53" cy="36" r="2" fill="black" />
        <circle cx="60" cy="36" r="2" fill="black" />
        <circle cx="67" cy="36" r="2" fill="black" />
    </g>
    <g transform="translate(0,95)">
        <circle cx="29" cy="29" r="2" fill="black" />
        <circle cx="37" cy="29" r="2" fill="black" />
        <circle cx="45" cy="29" r="2" fill="black" />
        <circle cx="29" cy="36" r="2" fill="black" />
        <circle cx="37" cy="36" r="2" fill="black" />
        <circle cx="45" cy="36" r="2" fill="black" />
        <circle cx="53" cy="36" r="2" fill="black" />
    </g>
    <g transform="translate(40,95)">
        <circle cx="29" cy="29" r="2" fill="black" />
        <circle cx="37" cy="29" r="2" fill="black" />
        <circle cx="45" cy="29" r="2" fill="black" />
        <circle cx="53" cy="29" r="2" fill="black" />
        <circle cx="29" cy="36" r="2" fill="black" />
        <circle cx="37" cy="36" r="2" fill="black" />
        <circle cx="45" cy="36" r="2" fill="black" />
        <circle cx="53" cy="36" r="2" fill="black" />
    </g>
    <g transform="translate(80,95)">
        <circle cx="29" cy="29" r="2" fill="black" />
        <circle cx="37" cy="29" r="2" fill="black" />
        <circle cx="45" cy="29" r="2" fill="black" />
        <circle cx="53" cy="29" r="2" fill="black" />
        <circle cx="29" cy="36" r="2" fill="black" />
        <circle cx="37" cy="36" r="2" fill="black" />
        <circle cx="45" cy="36" r="2" fill="black" />
        <circle cx="53" cy="36" r="2" fill="black" />
    </g>
    <g transform="translate(120,95)">
        <circle cx="29" cy="29" r="2" fill="black" />
        <circle cx="37" cy="29" r="2" fill="black" />
        <circle cx="45" cy="29" r="2" fill="black" />
        <circle cx="29" cy="36" r="2" fill="black" />
        <circle cx="37" cy="36" r="2" fill="black" />
        <circle cx="45" cy="36" r="2" fill="black" />
    </g>
    <g transform="translate(150,95)">
        <circle cx="29" cy="29" r="2" fill="black" />
        <circle cx="37" cy="29" r="2" fill="black" />
        <circle cx="45" cy="29" r="2" fill="black" />
        <circle cx="29" cy="36" r="2" fill="black" />
        <circle cx="37" cy="36" r="2" fill="black" />
        <circle cx="45" cy="36" r="2" fill="black" />
    </g>
    <g transform="translate(180,95)">
        <circle cx="29" cy="29" r="2" fill="black" />
        <circle cx="37" cy="29" r="2" fill="black" />
        <circle cx="29" cy="36" r="2" fill="black" />
        <circle cx="37" cy="36" r="2" fill="black" />
    </g>
    <g transform="translate(200,95)">
        <circle cx="29" cy="29" r="2" fill="black" />
        <circle cx="37" cy="29" r="2" fill="black" />
        <circle cx="29" cy="36" r="2" fill="black" />
        <circle cx="37" cy="36" r="2" fill="black" />
    </g>
    <g transform="translate(220,95)">
        <circle cx="29" cy="29" r="2" fill="black" />
        <circle cx="37" cy="29" r="2" fill="black" />
        <circle cx="45" cy="29" r="2" fill="black" />
        <circle cx="53" cy="29" r="2" fill="black" />
        <circle cx="29" cy="36" r="2" fill="black" />
        <circle cx="37" cy="36" r="2" fill="black" />
        <circle cx="45" cy="36" r="2" fill="black" />
    </g>
    <g transform="translate(260,95)">
        <circle cx="29" cy="29" r="2" fill="black" />
        <circle cx="37" cy="29" r="2" fill="black" />
        <circle cx="45" cy="29" r="2" fill="black" />
        <circle cx="29" cy="36" r="2" fill="black" />
        <circle cx="37" cy="36" r="2" fill="black" />
        <circle cx="45" cy="36" r="2" fill="black" />
    </g>
    <rect x="20" y="45" width="300" height="2" fill="#1c1c1c" />
    <rect x="20" y="113" width="114" height="2" fill="#1c1c1c" />
    <rect x="146" y="113" width="174" height="2" fill="#1c1c1c" />
    <g transform="translate(0,28)">
        <circle cx="29" cy="29" r="2" fill="black" />
        <circle cx="37" cy="29" r="2" fill="black" />
        <circle cx="45" cy="29" r="2" fill="black" />
        <circle cx="53" cy="29" r="2" fill="black" />
        <circle cx="60" cy="29" r="2" fill="black" />
        <circle cx="67" cy="29" r="2" fill="black" />
        <circle cx="74" cy="29" r="2" fill="black" />
        <circle cx="81" cy="29" r="2" fill="black" />
        <circle cx="88" cy="29" r="2" fill="black" />
        <circle cx="95" cy="29" r="2" fill="black" />
        <circle cx="102" cy="29" r="2" fill="black" />
        <circle cx="109" cy="29" r="2" fill="black" />
        <circle cx="116" cy="29" r="2" fill="black" />
        <circle cx="123" cy="29" r="2" fill="black" />
        <circle cx="130" cy="29" r="2" fill="black" />
        <circle cx="137" cy="29" r="2" fill="black" />
        <circle cx="144" cy="29" r="2" fill="black" />
        <circle cx="151" cy="29" r="2" fill="black" />
        <circle cx="158" cy="29" r="2" fill="black" />
        <circle cx="165" cy="29" r="2" fill="black" />
        <circle cx="172" cy="29" r="2" fill="black" />
        <circle cx="179" cy="29" r="2" fill="black" />
        <circle cx="186" cy="29" r="2" fill="black" />
        <circle cx="193" cy="29" r="2" fill="black" />
        <circle cx="200" cy="29" r="2" fill="black" />
        <circle cx="207" cy="29" r="2" fill="black" />
        <circle cx="214" cy="29" r="2" fill="black" />
        <circle cx="221" cy="29" r="2" fill="black" />
        <circle cx="228" cy="29" r="2" fill="black" />
        <circle cx="235" cy="29" r="2" fill="black" />
        <circle cx="242" cy="29" r="2" fill="black" />
        <circle cx="249" cy="29" r="2" fill="black" />
        <circle cx="256" cy="29" r="2" fill="black" />
        <circle cx="263" cy="29" r="2" fill="black" />
        <circle cx="270" cy="29" r="2" fill="black" />
        <circle cx="277" cy="29" r="2" fill="black" />
        <circle cx="284" cy="29" r="2" fill="black" />
        <circle cx="291" cy="29" r="2" fill="black" />
        <circle cx="305" cy="29" r="2" fill="black" />
        <circle cx="312" cy="29" r="2" fill="black" />
        <circle cx="29" cy="36" r="2" fill="black" />
        <circle cx="37" cy="36" r="2" fill="black" />
        <circle cx="45" cy="36" r="2" fill="black" />
        <circle cx="53" cy="36" r="2" fill="black" />
        <circle cx="60" cy="36" r="2" fill="black" />
        <circle cx="67" cy="36" r="2" fill="black" />
        <circle cx="74" cy="36" r="2" fill="black" />
        <circle cx="81" cy="36" r="2" fill="black" />
        <circle cx="88" cy="36" r="2" fill="black" />
        <circle cx="95" cy="36" r="2" fill="black" />
        <circle cx="102" cy="36" r="2" fill="black" />
        <circle cx="109" cy="36" r="2" fill="black" />
        <circle cx="116" cy="36" r="2" fill="black" />
        <circle cx="123" cy="36" r="2" fill="black" />
        <circle cx="130" cy="36" r="2" fill="black" />
        <circle cx="137" cy="36" r="2" fill="black" />
        <circle cx="144" cy="36" r="2" fill="black" />
        <circle cx="151" cy="36" r="2" fill="black" />
        <circle cx="158" cy="36" r="2" fill="black" />
        <circle cx="165" cy="36" r="2" fill="black" />
        <circle cx="172" cy="36" r="2" fill="black" />
        <circle cx="179" cy="36" r="2" fill="black" />
        <circle cx="186" cy="36" r="2" fill="black" />
        <circle cx="193" cy="36" r="2" fill="black" />
        <circle cx="200" cy="36" r="2" fill="black" />
        <circle cx="207" cy="36" r="2" fill="black" />
        <circle cx="214" cy="36" r="2" fill="black" />
        <circle cx="221" cy="36" r="2" fill="black" />
        <circle cx="228" cy="36" r="2" fill="black" />
        <circle cx="235" cy="36" r="2" fill="black" />
        <circle cx="242" cy="36" r="2" fill="black" />
        <circle cx="249" cy="36" r="2" fill="black" />
        <circle cx="256" cy="36" r="2" fill="black" />
        <circle cx="263" cy="36" r="2" fill="black" />
        <circle cx="270" cy="36" r="2" fill="black" />
        <circle cx="277" cy="36" r="2" fill="black" />
        <circle cx="284" cy="36" r="2" fill="black" />
        <circle cx="291" cy="36" r="2" fill="black" />
        <circle cx="305" cy="36" r="2" fill="black" />
        <circle cx="312" cy="36" r="2" fill="black" />
    </g>
    <g transform="translate(0,47)">
        <circle cx="29" cy="29" r="2" fill="black" />
        <circle cx="37" cy="29" r="2" fill="black" />
        <circle cx="45" cy="29" r="2" fill="black" />
        <circle cx="53" cy="29" r="2" fill="black" />
        <circle cx="60" cy="29" r="2" fill="black" />
        <circle cx="67" cy="29" r="2" fill="black" />
        <circle cx="74" cy="29" r="2" fill="black" />
        <circle cx="81" cy="29" r="2" fill="black" />
        <circle cx="88" cy="29" r="2" fill="black" />
        <circle cx="95" cy="29" r="2" fill="black" />
        <circle cx="102" cy="29" r="2" fill="black" />
        <circle cx="109" cy="29" r="2" fill="black" />
        <circle cx="116" cy="29" r="2" fill="black" />
        <circle cx="123" cy="29" r="2" fill="black" />
        <circle cx="130" cy="29" r="2" fill="black" />
        <circle cx="137" cy="29" r="2" fill="black" />
        <circle cx="151" cy="29" r="2" fill="black" />
        <circle cx="158" cy="29" r="2" fill="black" />
        <circle cx="165" cy="29" r="2" fill="black" />
        <circle cx="172" cy="29" r="2" fill="black" />
        <circle cx="179" cy="29" r="2" fill="black" />
        <circle cx="186" cy="29" r="2" fill="black" />
        <circle cx="193" cy="29" r="2" fill="black" />
        <circle cx="200" cy="29" r="2" fill="black" />
        <circle cx="207" cy="29" r="2" fill="black" />
        <circle cx="214" cy="29" r="2" fill="black" />
        <circle cx="221" cy="29" r="2" fill="black" />
        <circle cx="228" cy="29" r="2" fill="black" />
        <circle cx="235" cy="29" r="2" fill="black" />
        <circle cx="242" cy="29" r="2" fill="black" />
        <circle cx="249" cy="29" r="2" fill="black" />
        <circle cx="256" cy="29" r="2" fill="black" />
        <circle cx="270" cy="29" r="2" fill="black" />
        <circle cx="277" cy="29" r="2" fill="black" />
        <circle cx="284" cy="29" r="2" fill="black" />
        <circle cx="291" cy="29" r="2" fill="black" />
        <circle cx="298" cy="29" r="2" fill="black" />
        <circle cx="305" cy="29" r="2" fill="black" />
        <circle cx="312" cy="29" r="2" fill="black" />
        <circle cx="29" cy="36" r="2" fill="black" />
        <circle cx="37" cy="36" r="2" fill="black" />
        <circle cx="45" cy="36" r="2" fill="black" />
        <circle cx="53" cy="36" r="2" fill="black" />
        <circle cx="60" cy="36" r="2" fill="black" />
        <circle cx="67" cy="36" r="2" fill="black" />
        <circle cx="74" cy="36" r="2" fill="black" />
        <circle cx="81" cy="36" r="2" fill="black" />
        <circle cx="88" cy="36" r="2" fill="black" />
        <circle cx="95" cy="36" r="2" fill="black" />
        <circle cx="102" cy="36" r="2" fill="black" />
        <circle cx="109" cy="36" r="2" fill="black" />
        <circle cx="116" cy="36" r="2" fill="black" />
        <circle cx="123" cy="36" r="2" fill="black" />
        <circle cx="130" cy="36" r="2" fill="black" />
        <circle cx="137" cy="36" r="2" fill="black" />
        <circle cx="151" cy="36" r="2" fill="black" />
        <circle cx="158" cy="36" r="2" fill="black" />
        <circle cx="165" cy="36" r="2" fill="black" />
        <circle cx="172" cy="36" r="2" fill="black" />
        <circle cx="179" cy="36" r="2" fill="black" />
        <circle cx="186" cy="36" r="2" fill="black" />
        <circle cx="193" cy="36" r="2" fill="black" />
        <circle cx="200" cy="36" r="2" fill="black" />
        <circle cx="207" cy="36" r="2" fill="black" />
        <circle cx="214" cy="36" r="2" fill="black" />
        <circle cx="221" cy="36" r="2" fill="black" />
        <circle cx="228" cy="36" r="2" fill="black" />
        <circle cx="235" cy="36" r="2" fill="black" />
        <circle cx="242" cy="36" r="2" fill="black" />
        <circle cx="249" cy="36" r="2" fill="black" />
        <circle cx="256" cy="36" r="2" fill="black" />
        <circle cx="270" cy="36" r="2" fill="black" />
        <circle cx="277" cy="36" r="2" fill="black" />
        <circle cx="284" cy="36" r="2" fill="black" />
        <circle cx="291" cy="36" r="2" fill="black" />
        <circle cx="298" cy="36" r="2" fill="black" />
        <circle cx="305" cy="36" r="2" fill="black" />
        <circle cx="312" cy="36" r="2" fill="black" />
    </g>
    <g transform="translate(0,66)">
        <circle cx="29" cy="29" r="2" fill="black" />
        <circle cx="37" cy="29" r="2" fill="black" />
        <circle cx="45" cy="29" r="2" fill="black" />
        <circle cx="53" cy="29" r="2" fill="black" />
        <circle cx="67" cy="29" r="2" fill="black" />
        <circle cx="74" cy="29" r="2" fill="black" />
        <circle cx="81" cy="29" r="2" fill="black" />
        <circle cx="88" cy="29" r="2" fill="black" />
        <circle cx="95" cy="29" r="2" fill="black" />
        <circle cx="102" cy="29" r="2" fill="black" />
        <circle cx="109" cy="29" r="2" fill="black" />
        <circle cx="116" cy="29" r="2" fill="black" />
        <circle cx="123" cy="29" r="2" fill="black" />
        <circle cx="130" cy="29" r="2" fill="black" />
        <circle cx="137" cy="29" r="2" fill="black" />
        <circle cx="144" cy="29" r="2" fill="black" />
        <circle cx="151" cy="29" r="2" fill="black" />
        <circle cx="158" cy="29" r="2" fill="black" />
        <circle cx="165" cy="29" r="2" fill="black" />
        <circle cx="172" cy="29" r="2" fill="black" />
        <circle cx="179" cy="29" r="2" fill="black" />
        <circle cx="186" cy="29" r="2" fill="black" />
        <circle cx="193" cy="29" r="2" fill="black" />
        <circle cx="200" cy="29" r="2" fill="black" />
        <circle cx="207" cy="29" r="2" fill="black" />
        <circle cx="214" cy="29" r="2" fill="black" />
        <circle cx="221" cy="29" r="2" fill="black" />
        <circle cx="228" cy="29" r="2" fill="black" />
        <circle cx="235" cy="29" r="2" fill="black" />
        <circle cx="242" cy="29" r="2" fill="black" />
        <circle cx="249" cy="29" r="2" fill="black" />
        <circle cx="256" cy="29" r="2" fill="black" />
        <circle cx="263" cy="29" r="2" fill="black" />
        <circle cx="270" cy="29" r="2" fill="black" />
        <circle cx="277" cy="29" r="2" fill="black" />
        <circle cx="284" cy="29" r="2" fill="black" />
        <circle cx="291" cy="29" r="2" fill="black" />
        <circle cx="298" cy="29" r="2" fill="black" />
        <circle cx="305" cy="29" r="2" fill="black" />
        <circle cx="312" cy="29" r="2" fill="black" />
        <circle cx="29" cy="36" r="2" fill="black" />
        <circle cx="37" cy="36" r="2" fill="black" />
        <circle cx="45" cy="36" r="2" fill="black" />
        <circle cx="53" cy="36" r="2" fill="black" />
        <circle cx="67" cy="36" r="2" fill="black" />
        <circle cx="74" cy="36" r="2" fill="black" />
        <circle cx="81" cy="36" r="2" fill="black" />
        <circle cx="88" cy="36" r="2" fill="black" />
        <circle cx="95" cy="36" r="2" fill="black" />
        <circle cx="102" cy="36" r="2" fill="black" />
        <circle cx="109" cy="36" r="2" fill="black" />
        <circle cx="116" cy="36" r="2" fill="black" />
        <circle cx="123" cy="36" r="2" fill="black" />
        <circle cx="130" cy="36" r="2" fill="black" />
        <circle cx="137" cy="36" r="2" fill="black" />
        <circle cx="144" cy="36" r="2" fill="black" />
        <circle cx="151" cy="36" r="2" fill="black" />
        <circle cx="158" cy="36" r="2" fill="black" />
        <circle cx="165" cy="36" r="2" fill="black" />
        <circle cx="172" cy="36" r="2" fill="black" />
        <circle cx="179" cy="36" r="2" fill="black" />
        <circle cx="186" cy="36" r="2" fill="black" />
        <circle cx="193" cy="36" r="2" fill="black" />
        <circle cx="200" cy="36" r="2" fill="black" />
        <circle cx="207" cy="36" r="2" fill="black" />
        <circle cx="214" cy="36" r="2" fill="black" />
        <circle cx="221" cy="36" r="2" fill="black" />
        <circle cx="228" cy="36" r="2" fill="black" />
        <circle cx="235" cy="36" r="2" fill="black" />
        <circle cx="242" cy="36" r="2" fill="black" />
        <circle cx="249" cy="36" r="2" fill="black" />
        <circle cx="256" cy="36" r="2" fill="black" />
        <circle cx="263" cy="36" r="2" fill="black" />
        <circle cx="270" cy="36" r="2" fill="black" />
        <circle cx="277" cy="36" r="2" fill="black" />
        <circle cx="284" cy="36" r="2" fill="black" />
        <circle cx="291" cy="36" r="2" fill="black" />
        <circle cx="298" cy="36" r="2" fill="black" />
        <circle cx="305" cy="36" r="2" fill="black" />
        <circle cx="312" cy="36" r="2" fill="black" />
    </g>
</svg>