<svg xmlns="http://www.w3.org/2000/svg" viewBox="0 0 300 200" width="300" height="200">
    <rect x="20" y="20" width="200" height="200" fill="#0c41c2" />
    <g>
        <rect x="34" y="29" width="70" height="1" fill="#fff" />
        <rect x="104" y="29" width="1" height="30" fill="#fff" />
        <rect x="104" y="58" width="35" height="1" fill="#fff" />
    </g>
    <g transform="translate(3, -3)">
        <rect x="28" y="29" width="76" height="1" fill="#fff" />
        <rect x="104" y="29" width="1" height="30" fill="#fff" />
        <rect x="104" y="58" width="35" height="1" fill="#fff" />
    </g>
    <g transform="translate(-3, 3)">
        <rect x="28" y="29" width="76" height="1" fill="#fff" />
        <rect x="104" y="29" width="1" height="30" fill="#fff" />
        <rect x="104" y="58" width="40" height="1" fill="#fff" />
    </g>
    <g>
        <rect x="80" y="88" width="1" height="66" fill="#fff" />
        <rect x="80" y="153" width="68" height="1" fill="#fff" />
    </g>
    <g transform="translate(3,-3)">
        <rect x="80" y="88" width="1" height="66" fill="#fff" />
        <rect x="80" y="153" width="68" height="1" fill="#fff" />
    </g>
    <g transform="translate(-3,3)">
        <rect x="80" y="88" width="1" height="66" fill="#fff" />
        <rect x="80" y="153" width="70" height="1" fill="#fff" />
    </g>
    <g>
        <rect x="130" y="96" width="1" height="80" fill="#fff" />
        <rect x="55" y="176" width="76" height="1" fill="#fff" />
    </g>
    <g transform="translate(3,3)">
        <rect x="130" y="96" width="1" height="80" fill="#fff" />
        <rect x="51" y="176" width="80" height="1" fill="#fff" />
    </g>
    <g transform="translate(-3,-3)">
        <rect x="130" y="98" width="1" height="79" fill="#fff" />
        <rect x="51" y="176" width="80" height="1" fill="#fff" />
    </g>
    <g>
        <rect x="180" y="45" width="1" height="80" fill="#fff" />
        <rect x="50" y="125" width="131" height="1" fill="#fff" />
    </g>
    <g transform="translate(3,3)">
        <rect x="180" y="45" width="1" height="80" fill="#fff" />
        <rect x="47" y="125" width="134" height="1" fill="#fff" />
    </g>
    <g transform="translate(-3,-3)">
        <rect x="180" y="45" width="1" height="80" fill="#fff" />
        <rect x="50" y="125" width="131" height="1" fill="#fff" />
    </g>
    <g>
        <rect x="80" y="88" width="115" height="1" fill="#fff" />
        <rect x="195" y="88" width="1" height="74" fill="#fff" />
    </g>
    <g transform="translate(3,-3)">
        <rect x="80" y="88" width="115" height="1" fill="#fff" />
        <rect x="195" y="88" width="1" height="76" fill="#fff" />
    </g>
    <g transform="translate(-3,3)">
        <rect x="80" y="88" width="115" height="1" fill="#fff" />
        <rect x="195" y="88" width="1" height="74" fill="#fff" />
    </g>
    <g>
        <rect x="44" y="88" width="55" height="1" fill="#fff" />
        <rect x="44" y="88" width="1" height="40" fill="#fff" />
    </g>
    <g transform="translate(-3, -3)">
        <rect x="44" y="88" width="55" height="1" fill="#fff" />
        <rect x="44" y="88" width="1" height="40" fill="#fff" />
    </g>
    <g transform="translate(3, 3)">
        <rect x="44" y="88" width="55" height="1" fill="#fff" />
        <rect x="44" y="88" width="1" height="40" fill="#fff" />
    </g>
    <g>
        <circle cx="28" cy="29" r="5" fill="#fff" stroke="#333" stroke-width="2" />
        <circle cx="145" cy="58" r="5" fill="#fff" stroke="#333" stroke-width="2" />
        <circle cx="80" cy="88" r="5" fill="#fff" stroke="#333" stroke-width="2" />
        <circle cx="150" cy="152" r="5" fill="#fff" stroke="#333" stroke-width="2" />
        <circle cx="130" cy="99" r="5" fill="#fff" stroke="#333" stroke-width="2" />
        <circle cx="50" cy="176" r="5" fill="#fff" stroke="#333" stroke-width="2" />
        <circle cx="180" cy="45" r="5" fill="#fff" stroke="#333" stroke-width="2" />
        <circle cx="45" cy="126" r="5" fill="#fff" stroke="#333" stroke-width="2" />
    </g>
    <rect x="40" y="50" rx="2" ry="2" width="30" height="10" fill="#ccc" />
    <rect x="180" y="160" rx="2" ry="2" width="30" height="30" fill="#ccc" />

    <rect x="185" y="155" width="4" height="6" fill="#ccc" />
    <rect x="202" y="155" width="4" height="6" fill="#ccc" />
    <rect x="185" y="190" width="4" height="6" fill="#ccc" />
    <rect x="202" y="190" width="4" height="6" fill="#ccc" />
    <rect x="175" y="165" width="6" height="4" fill="#ccc" />
    <rect x="175" y="180" width="6" height="4" fill="#ccc" />
    <rect x="210" y="165" width="6" height="4" fill="#ccc" />
    <rect x="210" y="180" width="6" height="4" fill="#ccc" />
</svg>