<svg xmlns="http://www.w3.org/2000/svg" viewBox="0 0 300 200" width="300" height="200">
    <rect x="20" y="20" width="260" height="120" rx="6" ry="6" fill="#80B3FF" />
    <rect x="30" y="30" width="20" height="20" rx="5" ry="5" fill="#fff" />
    <rect x="55" y="30" width="20" height="20" rx="5" ry="5" fill="#fff" />
    <rect x="80" y="30" width="20" height="20" rx="5" ry="5" fill="#fff" />
    <rect x="105" y="30" width="20" height="20" rx="5" ry="5" fill="#fff" />
    <rect x="130" y="30" width="20" height="20" rx="5" ry="5" fill="#fff" />
    <rect x="155" y="30" width="20" height="20" rx="5" ry="5" fill="#fff" />
    <rect x="180" y="30" width="20" height="20" rx="5" ry="5" fill="#fff" />
    <rect x="205" y="30" width="20" height="20" rx="5" ry="5" fill="#fff" />
    <rect x="230" y="30" width="40" height="20" rx="5" ry="5" fill="#fff" />
    <rect x="41" y="56" width="20" height="20" rx="5" ry="5" fill="#fff" />
    <rect x="66" y="56" width="20" height="20" rx="5" ry="5" fill="#fff" />
    <rect x="91" y="56" width="20" height="20" rx="5" ry="5" fill="#fff" />
    <rect x="116" y="56" width="20" height="20" rx="5" ry="5" fill="#fff" />
    <rect x="141" y="56" width="20" height="20" rx="5" ry="5" fill="#fff" />
    <rect x="166" y="56" width="20" height="20" rx="5" ry="5" fill="#fff" />
    <rect x="191" y="56" width="20" height="20" rx="5" ry="5" fill="#fff" />
    <rect x="216" y="56" width="20" height="20" rx="5" ry="5" fill="#fff" />
    <rect x="52" y="82" width="20" height="20" rx="5" ry="5" fill="#fff" />
    <rect x="77" y="82" width="20" height="20" rx="5" ry="5" fill="#fff" />
    <rect x="102" y="82" width="20" height="20" rx="5" ry="5" fill="#fff" />
    <rect x="127" y="82" width="20" height="20" rx="5" ry="5" fill="#fff" />
    <rect x="152" y="82" width="20" height="20" rx="5" ry="5" fill="#fff" />
    <rect x="177" y="82" width="20" height="20" rx="5" ry="5" fill="#fff" />
    <rect x="202" y="82" width="20" height="20" rx="5" ry="5" fill="#fff" />
    <rect x="248" y="56" width="22" height="35" rx="5" ry="5" fill="#fff" />
    <rect x="232" y="82" width="38" height="20" rx="5" ry="5" fill="#fff" />
    <rect x="95" y="112" width="100" height="20" rx="5" ry="5" fill="#fff" />
</svg>