<svg xmlns="http://www.w3.org/2000/svg" viewBox="0 0 300 200" width="300" height="200">
    <rect x="20" y="20" width="260" height="160" fill="#0a800a" />
    <text x="195" y="135" font-family="monospace" font-size="15" fill="#2c3e50" text-anchor="middle">RASPBERRY PI</text>
    <rect x="120" y="40" width="60" height="13" fill="#231f20" />
    <rect x="125" y="44" width="50" height="4" fill="#30272a" />
    <text x="150" y="64" font-family="monospace" font-size="10" fill="#2c3e50" text-anchor="middle">RAM Slot</text>
    <circle cx="30" cy="30" r="7" fill="#e8e154" />
    <circle cx="30" cy="30" r="4" fill="#fff" />
    <circle cx="270" cy="30" r="7" fill="#e8e154" />
    <circle cx="270" cy="30" r="4" fill="#fff" />
    <circle cx="30" cy="170" r="7" fill="#e8e154" />
    <circle cx="30" cy="170" r="4" fill="#fff" />
    <circle cx="270" cy="170" r="7" fill="#e8e154" />
    <circle cx="270" cy="170" r="4" fill="#fff" />
    <rect x="15" y="80" width="15" height="35" fill="#EBDEDE" />
    <rect x="80" y="70" width="40" height="40" fill="#231f20" />
    <rect x="80" y="65" width="4" height="6" fill="#C9C0B8" />
    <rect x="87" y="65" width="4" height="6" fill="#C9C0B8" />
    <rect x="94" y="65" width="4" height="6" fill="#C9C0B8" />
    <rect x="101" y="65" width="4" height="6" fill="#C9C0B8" />
    <rect x="108" y="65" width="4" height="6" fill="#C9C0B8" />
    <rect x="115" y="65" width="4" height="6" fill="#C9C0B8" />
    <rect x="80" y="109" width="4" height="6" fill="#C9C0B8" />
    <rect x="87" y="109" width="4" height="6" fill="#C9C0B8" />
    <rect x="94" y="109" width="4" height="6" fill="#C9C0B8" />
    <rect x="101" y="109" width="4" height="6" fill="#C9C0B8" />
    <rect x="108" y="109" width="4" height="6" fill="#C9C0B8" />
    <rect x="115" y="109" width="4" height="6" fill="#C9C0B8" />
    <rect x="75" y="71" width="6" height="4" fill="#C9C0B8" />
    <rect x="75" y="78" width="6" height="4" fill="#C9C0B8" />
    <rect x="75" y="85" width="6" height="4" fill="#C9C0B8" />
    <rect x="75" y="92" width="6" height="4" fill="#C9C0B8" />
    <rect x="75" y="99" width="6" height="4" fill="#C9C0B8" />
    <rect x="75" y="106" width="6" height="4" fill="#C9C0B8" />
    <rect x="118" y="71" width="6" height="4" fill="#C9C0B8" />
    <rect x="118" y="78" width="6" height="4" fill="#C9C0B8" />
    <rect x="118" y="85" width="6" height="4" fill="#C9C0B8" />
    <rect x="118" y="92" width="6" height="4" fill="#C9C0B8" />
    <rect x="118" y="99" width="6" height="4" fill="#C9C0B8" />
    <rect x="118" y="106" width="6" height="4" fill="#C9C0B8" />
    <rect x="180" y="80" width="20" height="20" fill="#231f20" />
    <rect x="210" y="80" width="20" height="20" fill="#231f20" />
    <text x="75" y="165" font-family="monospace" font-size="10" fill="#2c3e50" text-anchor="middle">USB Port</text>
    <rect x="40" y="170" width="30" height="20" fill="#fff" />
    <rect x="80" y="170" width="30" height="20" fill="#fff" />
    <rect x="120" y="150" width="60" height="20" fill="#2ecc71" />
    <rect x="123" y="155" width="10" height="10" fill="#fff" />
    <rect x="138" y="155" width="10" height="10" fill="#fff" />
    <rect x="152" y="155" width="10" height="10" fill="#fff" />
    <rect x="166" y="155" width="10" height="10" fill="#fff" />
</svg>