<svg xmlns="http://www.w3.org/2000/svg" viewBox="0 0 200 200" width="200" height="200">
    <rect x="50" y="50" width="150" height="100" fill="#007acc" />
    <rect x="50" y="80" width="15" height="35" fill="#EBDEDE" />
    <circle cx="60" cy="50" r="5" fill="#e74c3c" />
    <circle cx="80" cy="50" r="5" fill="#e74c3c" />
    <circle cx="100" cy="50" r="5" fill="#e74c3c" />
    <circle cx="120" cy="50" r="5" fill="#e74c3c" />
    <circle cx="60" cy="150" r="5" fill="#e74c3c" />
    <circle cx="80" cy="150" r="5" fill="#e74c3c" />
    <circle cx="100" cy="150" r="5" fill="#e74c3c" />
    <circle cx="120" cy="150" r="5" fill="#e74c3c" />
    <rect x="65" y="125" width="65" height="14" fill="#a8b8d4" />
    <rect x="68" y="127" width="4" height="4" fill="#231f20" />
    <rect x="74" y="127" width="4" height="4" fill="#231f20" />
    <rect x="80" y="127" width="4" height="4" fill="#231f20" />
    <rect x="86" y="127" width="4" height="4" fill="#231f20" />
    <rect x="92" y="127" width="4" height="4" fill="#231f20" />
    <rect x="98" y="127" width="4" height="4" fill="#231f20" />
    <rect x="104" y="127" width="4" height="4" fill="#231f20" />
    <rect x="116" y="127" width="4" height="4" fill="#231f20" />
    <rect x="122" y="127" width="4" height="4" fill="#231f20" />
    <rect x="68" y="133" width="4" height="4" fill="#231f20" />
    <rect x="74" y="133" width="4" height="4" fill="#231f20" />
    <rect x="80" y="133" width="4" height="4" fill="#231f20" />
    <rect x="86" y="133" width="4" height="4" fill="#231f20" />
    <rect x="92" y="133" width="4" height="4" fill="#231f20" />
    <rect x="98" y="133" width="4" height="4" fill="#231f20" />
    <rect x="104" y="133" width="4" height="4" fill="#231f20" />
    <rect x="116" y="133" width="4" height="4" fill="#231f20" />
    <rect x="122" y="133" width="4" height="4" fill="#231f20" />
    <rect x="150" y="70" width="30" height="30" fill="#231f20" />
    <rect x="152" y="64" width="4" height="6" fill="#C9C0B8" />
    <rect x="159" y="64" width="4" height="6" fill="#C9C0B8" />
    <rect x="167" y="64" width="4" height="6" fill="#C9C0B8" />
    <rect x="174" y="64" width="4" height="6" fill="#C9C0B8" />
    <rect x="152" y="100" width="4" height="6" fill="#C9C0B8" />
    <rect x="159" y="100" width="4" height="6" fill="#C9C0B8" />
    <rect x="167" y="100" width="4" height="6" fill="#C9C0B8" />
    <rect x="174" y="100" width="4" height="6" fill="#C9C0B8" />
    <rect x="144" y="72" width="6" height="4" fill="#C9C0B8" />
    <rect x="144" y="79" width="6" height="4" fill="#C9C0B8" />
    <rect x="144" y="86" width="6" height="4" fill="#C9C0B8" />
    <rect x="144" y="93" width="6" height="4" fill="#C9C0B8" />
    <rect x="180" y="80" width="6" height="4" fill="#C9C0B8" />
    <rect x="180" y="73" width="6" height="4" fill="#C9C0B8" />
    <rect x="180" y="87" width="6" height="4" fill="#C9C0B8" />
    <rect x="180" y="94" width="6" height="4" fill="#C9C0B8" />
    <rect x="120" y="114" width="40" height="2" fill="#231f20" />
    <rect x="158" y="114" width="2" height="20" fill="#231f20" />
    <rect x="158" y="132" width="25" height="2" fill="#231f20" />
    <text x="100" y="100" font-family="monospace" font-size="16" fill="#fff" text-anchor="middle">STM32</text>
</svg>