<svg xmlns="http://www.w3.org/2000/svg" viewBox="0 0 300 200" width="300" height="200">
    <rect x="20" y="20" width="275" height="90" fill="#169e16" />
    <circle cx="32" cy="31" r="5" fill="#fff" stroke="#c2af2d" stroke-width="3"></circle>
    <circle cx="54" cy="31" r="5" fill="#fff" stroke="#c2af2d" stroke-width="3"></circle>
    <circle cx="76" cy="31" r="5" fill="#fff" stroke="#c2af2d" stroke-width="3"></circle>
    <circle cx="98" cy="31" r="5" fill="#fff" stroke="#c2af2d" stroke-width="3"></circle>
    <circle cx="120" cy="31" r="5" fill="#fff" stroke="#c2af2d" stroke-width="3"></circle>
    <circle cx="142" cy="31" r="5" fill="#fff" stroke="#c2af2d" stroke-width="3"></circle>
    <circle cx="164" cy="31" r="5" fill="#fff" stroke="#c2af2d" stroke-width="3"></circle>
    <circle cx="186" cy="31" r="5" fill="#fff" stroke="#c2af2d" stroke-width="3"></circle>
    <circle cx="208" cy="31" r="5" fill="#fff" stroke="#c2af2d" stroke-width="3"></circle>
    <circle cx="230" cy="31" r="5" fill="#fff" stroke="#c2af2d" stroke-width="3"></circle>
    <circle cx="252" cy="31" r="5" fill="#fff" stroke="#c2af2d" stroke-width="3"></circle>
    <circle cx="274" cy="31" r="5" fill="#fff" stroke="#c2af2d" stroke-width="3"></circle>
    <circle cx="32" cy="98" r="5" fill="#fff" stroke="#c2af2d" stroke-width="3"></circle>
    <circle cx="54" cy="98" r="5" fill="#fff" stroke="#c2af2d" stroke-width="3"></circle>
    <circle cx="76" cy="98" r="5" fill="#fff" stroke="#c2af2d" stroke-width="3"></circle>
    <circle cx="98" cy="98" r="5" fill="#fff" stroke="#c2af2d" stroke-width="3"></circle>
    <circle cx="120" cy="98" r="5" fill="#fff" stroke="#c2af2d" stroke-width="3"></circle>
    <circle cx="142" cy="98" r="5" fill="#fff" stroke="#c2af2d" stroke-width="3"></circle>
    <circle cx="164" cy="98" r="5" fill="#fff" stroke="#c2af2d" stroke-width="3"></circle>
    <circle cx="186" cy="98" r="5" fill="#fff" stroke="#c2af2d" stroke-width="3"></circle>
    <circle cx="208" cy="98" r="5" fill="#fff" stroke="#c2af2d" stroke-width="3"></circle>
    <circle cx="230" cy="98" r="5" fill="#fff" stroke="#c2af2d" stroke-width="3"></circle>
    <circle cx="252" cy="98" r="5" fill="#fff" stroke="#c2af2d" stroke-width="3"></circle>
    <circle cx="274" cy="98" r="5" fill="#fff" stroke="#c2af2d" stroke-width="3"></circle>
    <circle cx="230" cy="53" r="5" fill="#fff" stroke="#c2af2d" stroke-width="3"></circle>
    <circle cx="230" cy="75" r="5" fill="#fff" stroke="#c2af2d" stroke-width="3"></circle>
    <rect x="250" y="48" width="35" height="35" fill="#332d2e" />
    <rect x="254" y="42" width="4" height="6" fill="#C9C0B8" />
    <rect x="261" y="42" width="4" height="6" fill="#C9C0B8" />
    <rect x="269" y="42" width="4" height="6" fill="#C9C0B8" />
    <rect x="277" y="42" width="4" height="6" fill="#C9C0B8" />
    <rect x="254" y="83" width="4" height="6" fill="#C9C0B8" />
    <rect x="261" y="83" width="4" height="6" fill="#C9C0B8" />
    <rect x="269" y="83" width="4" height="6" fill="#C9C0B8" />
    <rect x="277" y="83" width="4" height="6" fill="#C9C0B8" />
    <rect x="244" y="53" width="6" height="4" fill="#C9C0B8" />
    <rect x="244" y="60" width="6" height="4" fill="#C9C0B8" />
    <rect x="244" y="67" width="6" height="4" fill="#C9C0B8" />
    <rect x="244" y="75" width="6" height="4" fill="#C9C0B8" />
    <rect x="285" y="53" width="6" height="4" fill="#C9C0B8" />
    <rect x="285" y="60" width="6" height="4" fill="#C9C0B8" />
    <rect x="285" y="67" width="6" height="4" fill="#C9C0B8" />
    <rect x="285" y="75" width="6" height="4" fill="#C9C0B8" />
    <rect x="56" y="75" width="55" height="10" fill="none" stroke="#fff" stroke-width="2" />
    <!-- <circle cx="68" cy="80" r="3" fill="#cf190c"></circle><circle cx="79" cy="80" r="3" fill="#48d606"></circle><circle cx="90" cy="80" r="3" fill="#0606d6"></circle> -->
    <rect x="130" y="48" width="26" height="35" fill="#332d2e" />
    <rect x="160" y="48" width="56" height="20" fill="#ebdedd" />
    <!-- <rect x="165" y="53" width="10" height="10" fill="#332d2e" /><rect x="183" y="53" width="10" height="10" fill="#332d2e" /><rect x="200" y="53" width="10" height="10" fill="#332d2e" /> -->
    <rect x="160" y="73" width="26" height="10" fill="#332d2e" />
    <rect x="190" y="73" width="26" height="10" fill="#332d2e" />
    <rect x="20" y="48" width="15" height="35" fill="#EBDEDE" />
</svg>